<svg xmlns="http://www.w3.org/2000/svg" width="327.923" height="129.451" viewBox="0 0 327.923 129.451">
  <g id="Gruppe_233" data-name="Gruppe 233" transform="translate(-167.5 -96.622)">
    <path id="Pfad_382" data-name="Pfad 382" d="M184.825,129.6q7.344,49.858,10.552,100.208" transform="translate(-4.847 -10.671)" fill="none" stroke="#000" stroke-linecap="round" stroke-linejoin="round" stroke-width="5"/>
    <path id="Pfad_383" data-name="Pfad 383" d="M171.019,121.83A72.027,72.027,0,0,1,216.182,105.6a12.52,12.52,0,0,1,5.21.8c2.665,1.2,4.3,4.021,4.925,6.877,1.325,6.005-1.141,12.374-5.182,17.009s-9.491,7.794-15,10.528A24.268,24.268,0,0,1,227.508,152.9c4.034,7.163,4.09,15.848,3.466,24.046a177.026,177.026,0,0,1-3.315,23.168c-1.177,5.567-2.827,11.425-7.088,15.194-8.668,7.667-23.3,2.986-32.841,9.532" transform="translate(0 -2.247)" fill="none" stroke="#000" stroke-linecap="round" stroke-linejoin="round" stroke-width="5"/>
    <path id="Pfad_384" data-name="Pfad 384" d="M267.078,113.13a910.825,910.825,0,0,1,3.4,108.409" transform="translate(-33.723 -4.89)" fill="none" stroke="#000" stroke-linecap="round" stroke-linejoin="round" stroke-width="5"/>
    <path id="Pfad_385" data-name="Pfad 385" d="M287.026,120.728q2.576,50.121,2.066,100.338l1.758-6.676" transform="translate(-40.726 -7.557)" fill="none" stroke="#000" stroke-linecap="round" stroke-linejoin="round" stroke-width="5"/>
    <path id="Pfad_386" data-name="Pfad 386" d="M288.662,116.006a42.785,42.785,0,0,1,16.347-2.2c5.643.344,12.378,3.108,12.788,8.747.253,3.482-2.117,6.567-4.511,9.108A82.932,82.932,0,0,1,295.9,145.71c9.712,4.784,22.736,1.572,30.854,8.734,6.644,5.861,6.881,16.087,5.483,24.836-1.049,6.559-2.9,13.347-7.558,18.087-7.866,8.012-21.111,7.794-30.065,14.567" transform="translate(-41.3 -5.099)" fill="none" stroke="#000" stroke-linecap="round" stroke-linejoin="round" stroke-width="5"/>
    <path id="Pfad_387" data-name="Pfad 387" d="M362.7,113.1l.36,92.838a4.119,4.119,0,0,0,.533,2.463,3.987,3.987,0,0,0,2.805,1.221,53.73,53.73,0,0,0,12.848.19,9,9,0,0,0,4.761-1.526c1.321-1.054,1.99-3.106,1.01-4.484" transform="translate(-67.293 -4.88)" fill="none" stroke="#000" stroke-linecap="round" stroke-linejoin="round" stroke-width="5"/>
    <path id="Pfad_388" data-name="Pfad 388" d="M409.634,101.71q-.451,51.682.813,103.36c.013.549.079,1.193.549,1.476s1.218-.411.789-.753" transform="translate(-83.727 -0.88)" fill="none" stroke="#000" stroke-linecap="round" stroke-linejoin="round" stroke-width="5"/>
    <path id="Pfad_389" data-name="Pfad 389" d="M444.03,107.155c-5.556-.065-10.519,3.987-13.085,8.916s-3.173,10.619-3.541,16.164a240.186,240.186,0,0,0,1.3,45.494c.461,3.709,1.032,7.484,2.732,10.812s4.737,6.185,8.434,6.729c3.777.555,7.509-1.351,10.451-3.784,7.042-5.826,10.988-14.724,12.566-23.726s1.019-18.226.456-27.348q-.552-8.921-1.1-17.843c-.191-3.093-.415-6.3-1.9-9.021-2.14-3.911-6.6-6.109-11.023-6.658s-8.889.308-13.266,1.16" transform="translate(-89.822 -2.638)" fill="none" stroke="#000" stroke-linecap="round" stroke-linejoin="round" stroke-width="5"/>
    <path id="Pfad_390" data-name="Pfad 390" d="M481.323,102.536q18.446-1.292,36.96-.866" transform="translate(-108.936 -0.83)" fill="none" stroke="#000" stroke-linecap="round" stroke-linejoin="round" stroke-width="5"/>
    <path id="Pfad_391" data-name="Pfad 391" d="M511.505,103.029l-1.258,98.361c-.008.607.112,1.387.7,1.522s.528-1.195.069-.8" transform="translate(-119.09 -1.344)" fill="none" stroke="#000" stroke-linecap="round" stroke-linejoin="round" stroke-width="5"/>
    <path id="Pfad_392" data-name="Pfad 392" d="M529.579,116.927q1.084,44.7-1.569,89.391l1.047-3.944" transform="translate(-125.326 -6.223)" fill="none" stroke="#000" stroke-linecap="round" stroke-linejoin="round" stroke-width="5"/>
    <path id="Pfad_393" data-name="Pfad 393" d="M556.292,113.1l-.565,87.9" transform="translate(-135.056 -4.878)" fill="none" stroke="#000" stroke-linecap="round" stroke-linejoin="round" stroke-width="5"/>
    <path id="Pfad_394" data-name="Pfad 394" d="M530.692,179.738a61.429,61.429,0,0,0,15.619-.662" transform="translate(-126.268 -28.041)" fill="none" stroke="#000" stroke-linecap="round" stroke-linejoin="round" stroke-width="5"/>
    <path id="Pfad_395" data-name="Pfad 395" d="M575.206,101.706l1.936,93.784a2.064,2.064,0,0,0,2.7,2.428l18.146-1.1-3.58-12.033" transform="translate(-141.895 -0.879)" fill="none" stroke="#000" stroke-linecap="round" stroke-linejoin="round" stroke-width="5"/>
    <path id="Pfad_396" data-name="Pfad 396" d="M582.581,168.133l11.546-1.212" transform="translate(-144.484 -23.774)" fill="none" stroke="#000" stroke-linecap="round" stroke-linejoin="round" stroke-width="5"/>
    <path id="Pfad_397" data-name="Pfad 397" d="M576.254,104.217a52.033,52.033,0,0,1,16.847,1.7,4.853,4.853,0,0,1,2.983,1.708c.634.988.182,2.666-.988,2.748" transform="translate(-142.263 -1.724)" fill="none" stroke="#000" stroke-linecap="round" stroke-linejoin="round" stroke-width="5"/>
    <path id="Pfad_398" data-name="Pfad 398" d="M626.232,99.2l3.241,99.641c.029.883.94,2.088,1.445,1.362" transform="translate(-159.808 0)" fill="none" stroke="#000" stroke-linecap="round" stroke-linejoin="round" stroke-width="5"/>
    <path id="Pfad_399" data-name="Pfad 399" d="M653.47,103.733l-20.708,24.534A6.387,6.387,0,0,0,631.4,130.4c-.439,1.426.16,2.943.741,4.317a342.437,342.437,0,0,1,21.906,74.562" transform="translate(-161.569 -1.591)" fill="none" stroke="#000" stroke-linecap="round" stroke-linejoin="round" stroke-width="5"/>
  </g>
</svg>
