<svg xmlns="http://www.w3.org/2000/svg" width="322.729" height="131.712" viewBox="0 0 322.729 131.712">
  <g id="Gruppe_237" data-name="Gruppe 237" transform="matrix(0.996, -0.087, 0.087, 0.996, -221.486, -333.326)">
    <path id="Pfad_401" data-name="Pfad 401" d="M192.708,370.066l1.285,105.911c.017,1.427.11,3.03,1.172,3.982a5.227,5.227,0,0,0,3.418.923c10.024.3,20.771.225,29.07-5.4,11.915-8.082,14.183-26.616,5.775-38.3s-25.234-15.756-38.739-10.765" transform="translate(0 -0.009)" fill="none" stroke="#000" stroke-linecap="round" stroke-linejoin="round" stroke-width="5"/>
    <path id="Pfad_402" data-name="Pfad 402" d="M265,451.045a143.544,143.544,0,0,0,3.233,35.21c1.153,5.273,2.95,10.968,7.522,13.836,5.877,3.687,14.269.69,18.081-5.107s3.81-13.4,1.977-20.092c-1.661-6.065-4.694-11.773-5.5-18.009" transform="translate(-24.963 -27.999)" fill="none" stroke="#000" stroke-linecap="round" stroke-linejoin="round" stroke-width="5"/>
    <path id="Pfad_403" data-name="Pfad 403" d="M342.7,450.81c-6.322,1.432-13.483.4-18.811,4.094-6.739,4.671-7.137,14.5-5.465,22.525,1.288,6.182,3.447,12.3,7.288,17.313s9.533,8.827,15.82,9.423,13.032-2.466,15.892-8.1" transform="translate(-43.166 -27.918)" fill="none" stroke="#000" stroke-linecap="round" stroke-linejoin="round" stroke-width="5"/>
    <path id="Pfad_404" data-name="Pfad 404" d="M378.591,373.865q.324,49.883,2.877,99.717c.043.836-.091,1.926-.906,2.117s-.643-1.653-.063-1.048" transform="translate(-64.249 -1.322)" fill="none" stroke="#000" stroke-linecap="round" stroke-linejoin="round" stroke-width="5"/>
    <path id="Pfad_405" data-name="Pfad 405" d="M380.006,449.9c5.866-1.035,11.84-2.073,17.751-1.332s11.859,3.547,14.962,8.632c2.769,4.539,2.92,10.146,2.992,15.462l.387,28.771" transform="translate(-64.738 -27.055)" fill="none" stroke="#000" stroke-linecap="round" stroke-linejoin="round" stroke-width="5"/>
    <path id="Pfad_406" data-name="Pfad 406" d="M444.8,370.04c-1.864,31.162-.017,62.414,1.831,93.577.2,3.46.487,7.14,2.565,9.914s6.644,3.95,9,1.409" transform="translate(-86.865)" fill="none" stroke="#000" stroke-linecap="round" stroke-linejoin="round" stroke-width="5"/>
    <path id="Pfad_407" data-name="Pfad 407" d="M492.9,458.953c-4.7-4.7-13.3-3.062-17.684,1.934s-5.391,12.13-5.113,18.773c.23,5.508,1.284,11.173,4.423,15.705s8.733,7.673,14.15,6.651c5.037-.95,8.919-5.245,10.8-10.011s2.115-10,2.323-15.122l.584-14.392a193.348,193.348,0,0,0,3.9,41.723" transform="translate(-95.866 -29.768)" fill="none" stroke="#000" stroke-linecap="round" stroke-linejoin="round" stroke-width="5"/>
    <path id="Pfad_408" data-name="Pfad 408" d="M531.842,380.2a824.413,824.413,0,0,0,.009,93.637,3.436,3.436,0,0,0,1.013,2.734,3.1,3.1,0,0,0,1.616.438c6.661.433,13.215-3.089,17.374-8.31s6.116-11.941,6.51-18.6c.257-4.344-.164-8.9-2.386-12.637-5-8.416-16.517-9.541-26.305-9.715" transform="translate(-116.469 -3.511)" fill="none" stroke="#000" stroke-linecap="round" stroke-linejoin="round" stroke-width="5"/>
    <path id="Pfad_409" data-name="Pfad 409" d="M602.316,450.617c-9.472-1.491-18.946,6.61-20.094,16.13s5.167,19.077,13.933,22.961c4.236,1.877,9.256,2.555,13.471.631,5.184-2.367,7.983-7.984,9.966-13.327,2.089-5.631,3.613-12.319.306-17.331-2.265-3.432-6.3-5.224-10.235-6.421a59.215,59.215,0,0,0-17.3-2.562" transform="translate(-134.587 -27.79)" fill="none" stroke="#000" stroke-linecap="round" stroke-linejoin="round" stroke-width="5"/>
    <path id="Pfad_410" data-name="Pfad 410" d="M650.879,498.361a93.535,93.535,0,0,0-1.651-37.351,47.138,47.138,0,0,0,11.093.548" transform="translate(-157.793 -31.443)" fill="none" stroke="#000" stroke-linecap="round" stroke-linejoin="round" stroke-width="5"/>
  </g>
</svg>
