<svg xmlns="http://www.w3.org/2000/svg" width="453.319" height="108.222" viewBox="0 0 453.319 108.222">
  <g id="Gruppe_246" data-name="Gruppe 246" transform="translate(-21.332 -1736.398)">
    <path id="Pfad_584" data-name="Pfad 584" d="M70.78,1747.509c-10.214-8.368-26.51-8.064-36.4.681a28.647,28.647,0,0,0-6.167,7.755c-4.875,8.955-4.725,19.706-4.208,29.889.524,10.323,1.33,20.793,4.9,30.495s10.274,18.679,19.754,22.8,21.837,2.282,28.215-5.851" transform="translate(0 -0.735)" fill="none" stroke="#000" stroke-linecap="round" stroke-linejoin="round" stroke-width="5"/>
    <path id="Pfad_585" data-name="Pfad 585" d="M112.057,1747.161c-7.263.033-12.112,7.469-14.541,14.315A113.4,113.4,0,0,0,92.19,1786.7c-1.125,9.936-1.555,20.191,1.384,29.749s9.784,18.391,19.313,21.421a10.453,10.453,0,0,0,5.559.489c3.538-.853,5.7-4.348,7.3-7.618a100.54,100.54,0,0,0,7.14-67.686c-.851-3.425-1.954-6.929-4.333-9.536-4.4-4.825-11.729-5.238-18.261-5.313" transform="translate(-19.652 -2.403)" fill="none" stroke="#000" stroke-linecap="round" stroke-linejoin="round" stroke-width="5"/>
    <path id="Pfad_586" data-name="Pfad 586" d="M161.587,1831.037l2.768-81.436,9.191,28.129a2.777,2.777,0,0,0,1.165,1.774c1.155.565,2.364-.623,3.092-1.682a175.036,175.036,0,0,0,20.124-38.925l3.175,93.909" transform="translate(-40.08)" fill="none" stroke="#000" stroke-linecap="round" stroke-linejoin="round" stroke-width="5"/>
    <path id="Pfad_587" data-name="Pfad 587" d="M230.572,1747.144a723.478,723.478,0,0,0-2.061,97.373l2.275-2.075" transform="translate(-59.316 -2.398)" fill="none" stroke="#000" stroke-linecap="round" stroke-linejoin="round" stroke-width="5"/>
    <path id="Pfad_588" data-name="Pfad 588" d="M232.239,1743.708c6.035-.894,13.1-1.465,17.339,2.919,2.965,3.065,3.567,7.643,4.018,11.882.392,3.689.686,7.769-1.518,10.755-1.577,2.135-4.134,3.269-6.574,4.312l-15.943,6.818" transform="translate(-59.846 -1.217)" fill="none" stroke="#000" stroke-linecap="round" stroke-linejoin="round" stroke-width="5"/>
    <path id="Pfad_589" data-name="Pfad 589" d="M271.977,1746.665a625.007,625.007,0,0,0-3.052,80.214c.06,2.275.4,4.995,2.451,5.988,2.354,1.142,4.974-.91,6.63-2.934,13.175-16.108,13.684-38.8,13.355-59.6q-.222-14.068-.576-28.133" transform="translate(-71.23 -0.959)" fill="none" stroke="#000" stroke-linecap="round" stroke-linejoin="round" stroke-width="5"/>
    <path id="Pfad_590" data-name="Pfad 590" d="M312.9,1749.443a78.123,78.123,0,0,1,25.182-3.462" transform="translate(-84.079 -2.051)" fill="none" stroke="#000" stroke-linecap="round" stroke-linejoin="round" stroke-width="5"/>
    <path id="Pfad_591" data-name="Pfad 591" d="M330.854,1754.866l-.822,83.5" transform="translate(-89.061 -4.643)" fill="none" stroke="#000" stroke-linecap="round" stroke-linejoin="round" stroke-width="5"/>
    <path id="Pfad_592" data-name="Pfad 592" d="M382.381,1749.917a31.076,31.076,0,0,0-20.481,1.543,5.911,5.911,0,0,0-2.642,1.884,6.547,6.547,0,0,0-.762,3.635q-.469,35.433-.938,70.865a3.112,3.112,0,0,0,3.423,3.775q11.259,1.671,22.525,3.3l-1.832-7.3" transform="translate(-97.065 -2.896)" fill="none" stroke="#000" stroke-linecap="round" stroke-linejoin="round" stroke-width="5"/>
    <path id="Pfad_593" data-name="Pfad 593" d="M355.976,1800.78l15.264-1.771" transform="translate(-96.606 -17.479)" fill="none" stroke="#000" stroke-linecap="round" stroke-linejoin="round" stroke-width="5"/>
    <path id="Pfad_594" data-name="Pfad 594" d="M403.484,1753.614l-2.144,83.481" transform="translate(-109.797 -4.279)" fill="none" stroke="#000" stroke-linecap="round" stroke-linejoin="round" stroke-width="5"/>
    <path id="Pfad_595" data-name="Pfad 595" d="M403.62,1749.4c6.935-4.893,16.444-1.393,24.123,2.221a6.252,6.252,0,0,1,3.07,2.338,5.364,5.364,0,0,1,.291,3.439c-1.864,11.064-12.96,18.083-23.642,21.516a92.087,92.087,0,0,1,18.7,58.023" transform="translate(-110.46 -2.353)" fill="none" stroke="#000" stroke-linecap="round" stroke-linejoin="round" stroke-width="5"/>
    <path id="Pfad_596" data-name="Pfad 596" d="M455.334,1744.732a702.341,702.341,0,0,1-2.662,90.714" transform="translate(-124.723 -1.696)" fill="none" stroke="#000" stroke-linecap="round" stroke-linejoin="round" stroke-width="5"/>
    <path id="Pfad_597" data-name="Pfad 597" d="M461.744,1749.7a13.6,13.6,0,0,1,24.059,9.328c-.167,3.459-1.642,6.719-3.36,9.726-2.46,4.3-5.56,8.378-9.735,11.05s-9.569,3.77-14.193,1.984" transform="translate(-126.422 -1.725)" fill="none" stroke="#000" stroke-linecap="round" stroke-linejoin="round" stroke-width="5"/>
    <path id="Pfad_598" data-name="Pfad 598" d="M517.234,1745.793c-5.434-.632-11.746-.966-15.5,3.014a16.664,16.664,0,0,0-2.977,5.177,142.536,142.536,0,0,0-10.588,63.774c.4,6.122,1.582,12.916,6.5,16.581,4.7,3.5,11.533,2.864,16.607-.078,10.046-5.824,13.834-18.383,15.259-29.908a135.823,135.823,0,0,0-6.111-59.941" transform="translate(-134.959 -1.604)" fill="none" stroke="#000" stroke-linecap="round" stroke-linejoin="round" stroke-width="5"/>
    <path id="Pfad_599" data-name="Pfad 599" d="M556.6,1744.677c-7.182,2.74-10.226,11.141-11.7,18.685a124.48,124.48,0,0,0,5.421,66.768c.681,1.838,1.678,3.9,3.591,4.329,1.518.338,3.035-.519,4.266-1.469,9.808-7.571,11.582-21.443,12.331-33.81.492-8.105.87-16.321-.766-24.276s-5.513-15.736-12.074-20.52" transform="translate(-150.879 -1.68)" fill="none" stroke="#000" stroke-linecap="round" stroke-linejoin="round" stroke-width="5"/>
    <path id="Pfad_600" data-name="Pfad 600" d="M583.985,1743.481l5.044,72.477c.316,4.538.76,9.408,3.687,12.891s9.291,4.333,11.689.468" transform="translate(-162.907 -1.333)" fill="none" stroke="#000" stroke-linecap="round" stroke-linejoin="round" stroke-width="5"/>
    <path id="Pfad_601" data-name="Pfad 601" d="M637.056,1755.7c-1.159-2.9-2.394-5.9-4.736-7.962s-6.14-2.825-8.557-.853a8.668,8.668,0,0,0-2.482,4.343c-2.94,9.668-.941,20.252,3.057,29.533s9.885,17.6,15.124,26.238c3.7,6.094,7.2,13.077,5.735,20.052a4.733,4.733,0,0,1-1.648,3.035,4.857,4.857,0,0,1-2.785.648,19.341,19.341,0,0,1-17.647-12.1" transform="translate(-173.344 -1.989)" fill="none" stroke="#000" stroke-linecap="round" stroke-linejoin="round" stroke-width="5"/>
  </g>
</svg>
