<svg xmlns="http://www.w3.org/2000/svg" width="507.335" height="126.266" viewBox="0 0 507.335 126.266">
  <g id="Gruppe_242" data-name="Gruppe 242" transform="translate(-13.026 -845.255)">
    <path id="Pfad_464" data-name="Pfad 464" d="M15.915,866.412a912.043,912.043,0,0,1,11.108,91.9" transform="translate(0 -7.353)" fill="none" stroke="#000" stroke-linecap="round" stroke-linejoin="round" stroke-width="5"/>
    <path id="Pfad_465" data-name="Pfad 465" d="M16.767,868.051c13.484-4.136,28.546,2.448,37.782,13.107s13.612,24.662,16.375,38.493c1.617,8.1,2.764,16.284,3.6,24.5.479,4.693.824,9.62-1.042,13.953-3.662,8.5-14.32,11.51-23.574,11.245a58.757,58.757,0,0,1-24.708-6.26" transform="translate(-0.336 -7.506)" fill="none" stroke="#000" stroke-linecap="round" stroke-linejoin="round" stroke-width="5"/>
    <path id="Pfad_466" data-name="Pfad 466" d="M102.214,876.544a680.614,680.614,0,0,1,15.808,91.878" transform="translate(-34.042 -11.349)" fill="none" stroke="#000" stroke-linecap="round" stroke-linejoin="round" stroke-width="5"/>
    <path id="Pfad_467" data-name="Pfad 467" d="M99.786,873.715A80.453,80.453,0,0,1,129.3,870.63c2.768.227,5.643.642,7.928,2.22,4.58,3.166,5.154,9.781,3.966,15.22-2.353,10.779-11.8,20.967-22.779,19.89l15.271.719a5.215,5.215,0,0,1,3.228.883,5.131,5.131,0,0,1,1.348,2.846,167.112,167.112,0,0,1,3.649,53.206l1.489-3.28" transform="translate(-33.084 -8.911)" fill="none" stroke="#000" stroke-linecap="round" stroke-linejoin="round" stroke-width="5"/>
    <path id="Pfad_468" data-name="Pfad 468" d="M183.435,871.308a356.729,356.729,0,0,0,3.374,87.91c.586,3.586,1.923,7.912,5.493,8.593,2.142.409,4.261-.757,5.994-2.081,7.326-5.6,11.447-14.592,13.012-23.68s.845-18.394.12-27.588q-1.852-23.479-3.7-46.958" transform="translate(-65.569 -7.783)" fill="none" stroke="#000" stroke-linecap="round" stroke-linejoin="round" stroke-width="5"/>
    <path id="Pfad_469" data-name="Pfad 469" d="M256.772,871.436c-7.184-.719-15.417-1.089-20.528,4.011-2.976,2.97-4.219,7.228-5.094,11.341a102.216,102.216,0,0,0,4.264,56.84c1.478,3.934,3.276,7.887,6.333,10.77,2.838,2.678,6.533,4.221,10.14,5.708l10,4.124c1.2.5,3.384-.241,2.5-1.19" transform="translate(-84.035 -9.171)" fill="none" stroke="#000" stroke-linecap="round" stroke-linejoin="round" stroke-width="5"/>
    <path id="Pfad_470" data-name="Pfad 470" d="M299.219,868.792q-.185,52.673.912,105.34l2.8-4.161" transform="translate(-111.742 -8.292)" fill="none" stroke="#000" stroke-linecap="round" stroke-linejoin="round" stroke-width="5"/>
    <path id="Pfad_471" data-name="Pfad 471" d="M321.289,871l-19.125,28.44a6.239,6.239,0,0,0-1.263,2.783,6.464,6.464,0,0,0,1.418,3.861c10.384,16.429,16.067,35.314,21.632,53.936l5.246,17.555" transform="translate(-112.411 -9.161)" fill="none" stroke="#000" stroke-linecap="round" stroke-linejoin="round" stroke-width="5"/>
    <path id="Pfad_472" data-name="Pfad 472" d="M346.624,877.316a935.012,935.012,0,0,0,12.232,93.163A92.651,92.651,0,0,1,364.9,935.6a168.187,168.187,0,0,0,12.276,32,529.943,529.943,0,0,0-3.375-98.646" transform="translate(-130.452 -8.355)" fill="none" stroke="#000" stroke-linecap="round" stroke-linejoin="round" stroke-width="5"/>
    <path id="Pfad_473" data-name="Pfad 473" d="M431.995,863.49l-15.164,2.32c-1.767.27-3.759.685-4.686,2.213a6.173,6.173,0,0,0-.627,3.038q-1.372,41.264-2.744,82.528c-.061,1.825-.072,3.812,1.037,5.263,1.346,1.759,3.823,2.088,6.032,2.252q14.151,1.051,28.36.784" transform="translate(-154.96 -6.2)" fill="none" stroke="#000" stroke-linecap="round" stroke-linejoin="round" stroke-width="5"/>
    <path id="Pfad_474" data-name="Pfad 474" d="M412.833,937.2l15.326.835" transform="translate(-156.569 -35.276)" fill="none" stroke="#000" stroke-linecap="round" stroke-linejoin="round" stroke-width="5"/>
    <path id="Pfad_475" data-name="Pfad 475" d="M477.827,966.976,469.551,877.5c-.163-1.772-.3-3.681.613-5.209,1.124-1.883,3.476-2.6,5.641-2.948a35.26,35.26,0,0,1,18.757,2.092c1.633.659,3.4,1.667,3.758,3.392.335,1.623-.729,3.175-1.769,4.466A91.034,91.034,0,0,1,473.187,899.8c11.333,5.77,19.234,16.9,23.557,28.859s5.444,24.814,6.134,37.513" transform="translate(-178.896 -8.332)" fill="none" stroke="#000" stroke-linecap="round" stroke-linejoin="round" stroke-width="5"/>
    <path id="Pfad_476" data-name="Pfad 476" d="M534.449,867.689a658.109,658.109,0,0,1,3.976,96.77c-.03.914.132,2.1,1.024,2.3s.724-1.806.075-1.162" transform="translate(-204.542 -7.857)" fill="none" stroke="#000" stroke-linecap="round" stroke-linejoin="round" stroke-width="5"/>
    <path id="Pfad_477" data-name="Pfad 477" d="M557.619,864.868l-9.993,24.7a5.6,5.6,0,0,0-.566,2.278,5.852,5.852,0,0,0,1.437,3.04c14.164,19.437,17.925,44.344,20.891,68.211" transform="translate(-209.516 -6.744)" fill="none" stroke="#000" stroke-linecap="round" stroke-linejoin="round" stroke-width="5"/>
    <path id="Pfad_478" data-name="Pfad 478" d="M599.715,873.258c-1.6-4.517-8.609-4.789-11.935-1.34s-3.684,8.792-3.051,13.54c.837,6.29,3.04,12.3,5,18.336a245.855,245.855,0,0,1,10.634,50.1c.425,4.042-.044,9.334-3.953,10.448-2.39.681-4.983-.812-6.312-2.912a15.181,15.181,0,0,1-1.832-7.147" transform="translate(-224.274 -8.598)" fill="none" stroke="#000" stroke-linecap="round" stroke-linejoin="round" stroke-width="5"/>
    <path id="Pfad_479" data-name="Pfad 479" d="M621.833,867.419a202.925,202.925,0,0,0,20.689.864" transform="translate(-239.012 -7.75)" fill="none" stroke="#000" stroke-linecap="round" stroke-linejoin="round" stroke-width="5"/>
    <path id="Pfad_480" data-name="Pfad 480" d="M636.581,870.06q-.782,48.7-4.268,97.309" transform="translate(-243.146 -8.792)" fill="none" stroke="#000" stroke-linecap="round" stroke-linejoin="round" stroke-width="5"/>
    <path id="Pfad_481" data-name="Pfad 481" d="M671.04,864.692a831.778,831.778,0,0,0-19.87,93.838" transform="translate(-250.584 -6.674)" fill="none" stroke="#000" stroke-linecap="round" stroke-linejoin="round" stroke-width="5"/>
    <path id="Pfad_482" data-name="Pfad 482" d="M683.17,866.309l6.316,98.818" transform="translate(-263.207 -7.312)" fill="none" stroke="#000" stroke-linecap="round" stroke-linejoin="round" stroke-width="5"/>
    <path id="Pfad_483" data-name="Pfad 483" d="M661.135,951.892a70.76,70.76,0,0,1,21.183-.41c.439.057,1.008.049,1.174-.362s-.786-.558-.583-.164" transform="translate(-254.515 -40.611)" fill="none" stroke="#000" stroke-linecap="round" stroke-linejoin="round" stroke-width="5"/>
    <path id="Pfad_484" data-name="Pfad 484" d="M672.4,853.728l1.531.77" transform="translate(-258.956 -2.349)" fill="none" stroke="#000" stroke-linecap="round" stroke-linejoin="round" stroke-width="5"/>
    <path id="Pfad_485" data-name="Pfad 485" d="M695.724,850.524c-.48-.759-1.695.725-.856,1.046,1.367-.3,2.7-1.587,2.32-2.931s-3.026-1.033-2.666.319" transform="translate(-267.672)" fill="none" stroke="#000" stroke-linecap="round" stroke-linejoin="round" stroke-width="5"/>
    <path id="Pfad_486" data-name="Pfad 486" d="M699,869.876a262.89,262.89,0,0,1,30.682-1.722" transform="translate(-269.451 -8.039)" fill="none" stroke="#000" stroke-linecap="round" stroke-linejoin="round" stroke-width="5"/>
    <path id="Pfad_487" data-name="Pfad 487" d="M727.471,871.25c-2.025,18.358-1.987,36.874-1.946,55.344l.081,36.553c0,.424.07.951.469,1.092s.641-.71.225-.627" transform="translate(-279.909 -9.261)" fill="none" stroke="#000" stroke-linecap="round" stroke-linejoin="round" stroke-width="5"/>
    <path id="Pfad_488" data-name="Pfad 488" d="M744.574,880.665a135.132,135.132,0,0,1,21.479-.506" transform="translate(-287.428 -12.692)" fill="none" stroke="#000" stroke-linecap="round" stroke-linejoin="round" stroke-width="5"/>
    <path id="Pfad_489" data-name="Pfad 489" d="M762.067,882.6c-1.1,10.407-.936,20.9-.773,31.366q.4,25.77.8,51.539l1.316-1.585" transform="translate(-293.978 -13.738)" fill="none" stroke="#000" stroke-linecap="round" stroke-linejoin="round" stroke-width="5"/>
    <path id="Pfad_490" data-name="Pfad 490" d="M801.913,862.1a57.337,57.337,0,0,0-15.092-.561c-1.65.157-3.516.525-4.371,1.945a5.627,5.627,0,0,0-.544,2.891q-.364,41.736-.728,83.472a5.417,5.417,0,0,0,.68,3.295c.852,1.167,2.446,1.448,3.877,1.637,2.422.321,4.942.633,7.262-.134s4.363-2.957,4.113-5.388" transform="translate(-301.866 -5.33)" fill="none" stroke="#000" stroke-linecap="round" stroke-linejoin="round" stroke-width="5"/>
    <path id="Pfad_491" data-name="Pfad 491" d="M785.084,928.607l7.669.728" transform="translate(-303.408 -31.886)" fill="none" stroke="#000" stroke-linecap="round" stroke-linejoin="round" stroke-width="5"/>
    <path id="Pfad_492" data-name="Pfad 492" d="M816.932,963.3q4.241-41.022,4.9-82.31a33.322,33.322,0,0,0,9.6,24.77" transform="translate(-315.971 -13.102)" fill="none" stroke="#000" stroke-linecap="round" stroke-linejoin="round" stroke-width="5"/>
    <path id="Pfad_493" data-name="Pfad 493" d="M843.339,868.8l-.021,96.414c0,.423.066.948.464,1.094s.656-.7.239-.627" transform="translate(-326.379 -8.294)" fill="none" stroke="#000" stroke-linecap="round" stroke-linejoin="round" stroke-width="5"/>
  </g>
</svg>
