<svg xmlns="http://www.w3.org/2000/svg" width="374.8" height="116.535" viewBox="0 0 374.8 116.535">
  <g id="Gruppe_244" data-name="Gruppe 244" transform="translate(-47.282 -1326.804)">
    <path id="Pfad_539" data-name="Pfad 539" d="M81.307,1330.853a125.881,125.881,0,0,0-28.328-1.294,3.868,3.868,0,0,0-2.278.656c-.881.738-.935,2.05-.918,3.2q.689,48.325,1.379,96.651" fill="none" stroke="#000" stroke-linecap="round" stroke-linejoin="round" stroke-width="5"/>
    <path id="Pfad_540" data-name="Pfad 540" d="M77.385,1380.139a135.778,135.778,0,0,0-26.42,3.527" transform="translate(-0.386 -16.592)" fill="none" stroke="#000" stroke-linecap="round" stroke-linejoin="round" stroke-width="5"/>
    <path id="Pfad_541" data-name="Pfad 541" d="M110.929,1330.7c-4.013,18.218-3.306,37.1-2.579,55.741l1.72,44.11" transform="translate(-18.921 -0.465)" fill="none" stroke="#000" stroke-linecap="round" stroke-linejoin="round" stroke-width="5"/>
    <path id="Pfad_542" data-name="Pfad 542" d="M128.606,1333.282a630.249,630.249,0,0,0,.718,101.037,1.989,1.989,0,0,0,2.344,2.269q6.553.272,13.114.094" transform="translate(-25.163 -1.307)" fill="none" stroke="#000" stroke-linecap="round" stroke-linejoin="round" stroke-width="5"/>
    <path id="Pfad_543" data-name="Pfad 543" d="M167.962,1435.508q1.438-51.392-1.862-102.77a162.12,162.12,0,0,1,18.408,38.046l13.88-35.043a667.989,667.989,0,0,1,2.272,98.889" transform="translate(-37.943 -1.13)" fill="none" stroke="#000" stroke-linecap="round" stroke-linejoin="round" stroke-width="5"/>
    <path id="Pfad_544" data-name="Pfad 544" d="M225.787,1336.206a417.918,417.918,0,0,1,14.091,103.468q5.6-20.489,11.194-40.979l17.537,38.875a389.206,389.206,0,0,0-3.424-94.663" transform="translate(-57.412 -2.261)" fill="none" stroke="#000" stroke-linecap="round" stroke-linejoin="round" stroke-width="5"/>
    <path id="Pfad_545" data-name="Pfad 545" d="M320.609,1342.821a31.281,31.281,0,0,0-12.23-1.595,3.843,3.843,0,0,0-2.434.786,3.96,3.96,0,0,0-.843,2.978c.036,6.2,1.156,12.344,2.127,18.472a391.973,391.973,0,0,1,4.795,66.435,3.5,3.5,0,0,0,3.187,4.237c3.252,1,6.736,2.009,10,1.046s5.9-4.781,4.347-7.809" transform="translate(-83.284 -3.874)" fill="none" stroke="#000" stroke-linecap="round" stroke-linejoin="round" stroke-width="5"/>
    <path id="Pfad_546" data-name="Pfad 546" d="M314.256,1403.955l7.653-1.029" transform="translate(-86.27 -24.025)" fill="none" stroke="#000" stroke-linecap="round" stroke-linejoin="round" stroke-width="5"/>
    <path id="Pfad_547" data-name="Pfad 547" d="M344.215,1346.026l3.1,91.711,1.432-2.168" transform="translate(-96.043 -5.464)" fill="none" stroke="#000" stroke-linecap="round" stroke-linejoin="round" stroke-width="5"/>
    <path id="Pfad_548" data-name="Pfad 548" d="M347.86,1344.615c1.9-4.063,7.935-5,11.518-2.3s4.623,7.917,3.238,12.181-4.778,7.628-8.588,9.993c-2.717,1.687-6.006,3.347-6.7,6.47,7.128,1.6,12.541,7.742,15.232,14.532s3.111,14.234,3.5,21.528q.746,14.037,1.491,28.074l-.85-3.764" transform="translate(-97.059 -3.755)" fill="none" stroke="#000" stroke-linecap="round" stroke-linejoin="round" stroke-width="5"/>
    <path id="Pfad_549" data-name="Pfad 549" d="M391.436,1333.355q.692,49.072,2.763,98.113" transform="translate(-111.446 -1.331)" fill="none" stroke="#000" stroke-linecap="round" stroke-linejoin="round" stroke-width="5"/>
    <path id="Pfad_550" data-name="Pfad 550" d="M419.887,1346.034a94.843,94.843,0,0,0-17.5,17,9.641,9.641,0,0,0-2.107,3.744c-.466,2.1.436,4.24,1.28,6.221a166.978,166.978,0,0,1,13.293,62.484" transform="translate(-114.29 -5.467)" fill="none" stroke="#000" stroke-linecap="round" stroke-linejoin="round" stroke-width="5"/>
    <path id="Pfad_551" data-name="Pfad 551" d="M451.979,1347.422c-.519-2.51-1.254-5.326-3.5-6.561-2.75-1.513-6.39.4-7.785,3.215s-1.135,6.135-.687,9.242c3.154,21.886,13.839,42.068,17.718,63.837,1.372,7.7,1.351,16.88-4.707,21.821a7.828,7.828,0,0,1-5.182,1.974,9.347,9.347,0,0,1-3.4-.979c-11.01-5.048-17.58-18.265-14.958-30.089" transform="translate(-123.668 -3.606)" fill="none" stroke="#000" stroke-linecap="round" stroke-linejoin="round" stroke-width="5"/>
    <path id="Pfad_552" data-name="Pfad 552" d="M478.713,1344.592a32.1,32.1,0,0,1,16.247-2.383" transform="translate(-139.915 -4.152)" fill="none" stroke="#000" stroke-linecap="round" stroke-linejoin="round" stroke-width="5"/>
    <path id="Pfad_553" data-name="Pfad 553" d="M491.664,1344.684q-2.659,50.542-2.441,101.181l3.2-4.76" transform="translate(-143.338 -5.026)" fill="none" stroke="#000" stroke-linecap="round" stroke-linejoin="round" stroke-width="5"/>
    <path id="Pfad_554" data-name="Pfad 554" d="M516,1344.577a414.672,414.672,0,0,0-16.068,93.253,27.013,27.013,0,0,0,3.676-7" transform="translate(-146.836 -4.991)" fill="none" stroke="#000" stroke-linecap="round" stroke-linejoin="round" stroke-width="5"/>
    <path id="Pfad_555" data-name="Pfad 555" d="M524.626,1347.361l7.5,89.291.008-3.2" transform="translate(-154.891 -5.9)" fill="none" stroke="#000" stroke-linecap="round" stroke-linejoin="round" stroke-width="5"/>
    <path id="Pfad_556" data-name="Pfad 556" d="M506.633,1410.57h17.911" transform="translate(-149.022 -26.518)" fill="none" stroke="#000" stroke-linecap="round" stroke-linejoin="round" stroke-width="5"/>
    <path id="Pfad_557" data-name="Pfad 557" d="M535.7,1344.826l16.225-1.5" transform="translate(-158.505 -4.583)" fill="none" stroke="#000" stroke-linecap="round" stroke-linejoin="round" stroke-width="5"/>
    <path id="Pfad_558" data-name="Pfad 558" d="M552.3,1346.007q-.087,47.041,1.949,94.055l1.4-3.646" transform="translate(-163.918 -5.458)" fill="none" stroke="#000" stroke-linecap="round" stroke-linejoin="round" stroke-width="5"/>
    <path id="Pfad_559" data-name="Pfad 559" d="M560.992,1344.375l24.877-5.3" transform="translate(-166.754 -3.196)" fill="none" stroke="#000" stroke-linecap="round" stroke-linejoin="round" stroke-width="5"/>
    <path id="Pfad_560" data-name="Pfad 560" d="M582.762,1346.012,584,1436.791a.521.521,0,0,1-.131.352" transform="translate(-173.855 -5.46)" fill="none" stroke="#000" stroke-linecap="round" stroke-linejoin="round" stroke-width="5"/>
  </g>
</svg>
