<svg xmlns="http://www.w3.org/2000/svg" width="419.67" height="127.723" viewBox="0 0 419.67 127.723">
  <g id="Gruppe_245" data-name="Gruppe 245" transform="translate(-41.884 -1539.858)">
    <path id="Pfad_561" data-name="Pfad 561" d="M223.787,1547.714A436.284,436.284,0,0,1,238.5,1655.72q5.843-21.388,11.684-42.776,9.153,20.289,18.306,40.579a406.243,406.243,0,0,0-3.574-98.814" transform="translate(-26.933 -0.651)" fill="none" stroke="#000" stroke-linecap="round" stroke-linejoin="round" stroke-width="5"/>
    <path id="Pfad_562" data-name="Pfad 562" d="M305.612,1553.549a32.646,32.646,0,0,0-12.766-1.664,4.009,4.009,0,0,0-2.541.819,4.137,4.137,0,0,0-.88,3.109c.037,6.477,1.207,12.885,2.22,19.282a409.184,409.184,0,0,1,5.005,69.349,3.654,3.654,0,0,0,3.327,4.423c3.395,1.046,7.031,2.1,10.439,1.091s6.159-4.99,4.538-8.151" transform="translate(-36.785 -1.265)" fill="none" stroke="#000" stroke-linecap="round" stroke-linejoin="round" stroke-width="5"/>
    <path id="Pfad_563" data-name="Pfad 563" d="M297,1604l7.988-1.074" transform="translate(-37.922 -8.938)" fill="none" stroke="#000" stroke-linecap="round" stroke-linejoin="round" stroke-width="5"/>
    <path id="Pfad_564" data-name="Pfad 564" d="M321.794,1555.841l3.236,95.731,1.495-2.262" transform="translate(-41.643 -1.871)" fill="none" stroke="#000" stroke-linecap="round" stroke-linejoin="round" stroke-width="5"/>
    <path id="Pfad_565" data-name="Pfad 565" d="M324.925,1555.5c1.98-4.241,8.282-5.213,12.023-2.4s4.826,8.264,3.38,12.715-4.988,7.962-8.964,10.432c-2.836,1.761-6.27,3.493-6.99,6.753,7.44,1.668,13.091,8.081,15.9,15.169s3.247,14.858,3.651,22.472q.779,14.652,1.556,29.3l-.887-3.929" transform="translate(-42.03 -1.22)" fill="none" stroke="#000" stroke-linecap="round" stroke-linejoin="round" stroke-width="5"/>
    <path id="Pfad_566" data-name="Pfad 566" d="M360.872,1545.355q.723,51.224,2.884,102.414" transform="translate(-47.509 -0.297)" fill="none" stroke="#000" stroke-linecap="round" stroke-linejoin="round" stroke-width="5"/>
    <path id="Pfad_567" data-name="Pfad 567" d="M388.684,1555.847a99.055,99.055,0,0,0-18.265,17.746,10.064,10.064,0,0,0-2.2,3.908c-.487,2.2.455,4.426,1.336,6.494a174.278,174.278,0,0,1,13.876,65.223" transform="translate(-48.592 -1.872)" fill="none" stroke="#000" stroke-linecap="round" stroke-linejoin="round" stroke-width="5"/>
    <path id="Pfad_568" data-name="Pfad 568" d="M415.966,1558.531c-.541-2.62-1.309-5.559-3.653-6.849-2.871-1.578-6.67.422-8.127,3.356s-1.184,6.4-.716,9.647c3.292,22.845,14.445,43.913,18.495,66.636,1.432,8.035,1.41,17.62-4.913,22.778a8.173,8.173,0,0,1-5.409,2.06,9.749,9.749,0,0,1-3.548-1.022c-11.492-5.269-18.351-19.065-15.614-31.408" transform="translate(-52.163 -1.163)" fill="none" stroke="#000" stroke-linecap="round" stroke-linejoin="round" stroke-width="5"/>
    <path id="Pfad_569" data-name="Pfad 569" d="M433.1,1555.214a33.5,33.5,0,0,1,16.959-2.488" transform="translate(-58.35 -1.371)" fill="none" stroke="#000" stroke-linecap="round" stroke-linejoin="round" stroke-width="5"/>
    <path id="Pfad_570" data-name="Pfad 570" d="M444.349,1554.73q-2.775,52.759-2.548,105.617l3.337-4.969" transform="translate(-59.653 -1.704)" fill="none" stroke="#000" stroke-linecap="round" stroke-linejoin="round" stroke-width="5"/>
    <path id="Pfad_571" data-name="Pfad 571" d="M467.433,1554.642a432.733,432.733,0,0,0-16.773,97.341,28.229,28.229,0,0,0,3.836-7.307" transform="translate(-60.986 -1.691)" fill="none" stroke="#000" stroke-linecap="round" stroke-linejoin="round" stroke-width="5"/>
    <path id="Pfad_572" data-name="Pfad 572" d="M471.1,1556.946l7.828,93.205.009-3.344" transform="translate(-64.053 -2.037)" fill="none" stroke="#000" stroke-linecap="round" stroke-linejoin="round" stroke-width="5"/>
    <path id="Pfad_573" data-name="Pfad 573" d="M456.205,1609.255h18.7" transform="translate(-61.818 -9.888)" fill="none" stroke="#000" stroke-linecap="round" stroke-linejoin="round" stroke-width="5"/>
    <path id="Pfad_574" data-name="Pfad 574" d="M480.263,1555.173l16.936-1.567" transform="translate(-65.429 -1.535)" fill="none" stroke="#000" stroke-linecap="round" stroke-linejoin="round" stroke-width="5"/>
    <path id="Pfad_575" data-name="Pfad 575" d="M494,1555.825q-.089,49.1,2.034,98.178l1.458-3.805" transform="translate(-67.49 -1.868)" fill="none" stroke="#000" stroke-linecap="round" stroke-linejoin="round" stroke-width="5"/>
    <path id="Pfad_576" data-name="Pfad 576" d="M501.19,1555.622l25.968-5.535" transform="translate(-68.57 -1.007)" fill="none" stroke="#000" stroke-linecap="round" stroke-linejoin="round" stroke-width="5"/>
    <path id="Pfad_577" data-name="Pfad 577" d="M519.207,1555.829l1.3,94.759a.546.546,0,0,1-.138.367" transform="translate(-71.274 -1.869)" fill="none" stroke="#000" stroke-linecap="round" stroke-linejoin="round" stroke-width="5"/>
    <path id="Pfad_578" data-name="Pfad 578" d="M67.158,1545.923a59.406,59.406,0,0,0-18.882,2.508,6,6,0,0,0-3.077,1.691c-1.031,1.281-.9,3.108-.73,4.743a608.146,608.146,0,0,1,2.078,104.077" transform="translate(0 -0.378)" fill="none" stroke="#000" stroke-linecap="round" stroke-linejoin="round" stroke-width="5"/>
    <path id="Pfad_579" data-name="Pfad 579" d="M52.2,1601.709H66.188" transform="translate(-1.178 -8.755)" fill="none" stroke="#000" stroke-linecap="round" stroke-linejoin="round" stroke-width="5"/>
    <path id="Pfad_580" data-name="Pfad 580" d="M91.963,1545.405c-5.326,2.469-8.829,7.868-10.41,13.521s-1.5,11.619-1.411,17.488l.635,41.14c.137,8.89.3,17.921,2.918,26.417s8.092,16.536,16.211,20.159a11.286,11.286,0,0,0,6.473,1.139c2.836-.5,5.108-2.6,6.99-4.784,9.5-11,13.225-26.064,13.146-40.6s-3.621-28.807-7.143-42.911c-1.7-6.805-3.508-13.842-7.879-19.327a25.07,25.07,0,0,0-22.781-9" transform="translate(-5.366 -0.304)" fill="none" stroke="#000" stroke-linecap="round" stroke-linejoin="round" stroke-width="5"/>
    <path id="Pfad_581" data-name="Pfad 581" d="M124.352,1548.29l35.506-.9" transform="translate(-12.008 -0.602)" fill="none" stroke="#000" stroke-linecap="round" stroke-linejoin="round" stroke-width="5"/>
    <path id="Pfad_582" data-name="Pfad 582" d="M151.243,1548.612q3.513,50.053,6.956,100.111l.511,7.386" transform="translate(-16.044 -0.786)" fill="none" stroke="#000" stroke-linecap="round" stroke-linejoin="round" stroke-width="5"/>
    <path id="Pfad_583" data-name="Pfad 583" d="M197.632,1549.814c-7.872-1.572-15.911,3.436-20.215,10.212s-5.617,14.98-6.516,22.957c-2.01,17.822-2.311,36.494,4.759,52.976,2.218,5.172,6.151,10.671,11.777,10.707a11.792,11.792,0,0,0,6.894-2.59c8.057-5.933,10.534-16.752,11.781-26.681a230.4,230.4,0,0,0,.173-55.993c-.789-6.6-2.192-13.778-7.31-18.024" transform="translate(-18.808)" fill="none" stroke="#000" stroke-linecap="round" stroke-linejoin="round" stroke-width="5"/>
  </g>
</svg>
