<svg xmlns="http://www.w3.org/2000/svg" width="127.236" height="164.633" viewBox="0 0 127.236 164.633">
  <g id="Gruppe_241" data-name="Gruppe 241" transform="translate(-842.054 -652.365)">
    <path id="Pfad_459" data-name="Pfad 459" d="M844.575,654.873q-.223,72.8,1.893,145.59" fill="none" stroke="#000" stroke-linecap="round" stroke-linejoin="round" stroke-width="5"/>
    <path id="Pfad_460" data-name="Pfad 460" d="M875.209,733.625l-21.5,19.077a2.826,2.826,0,0,0-.924,4.18l24.053,50.844" fill="none" stroke="#000" stroke-linecap="round" stroke-linejoin="round" stroke-width="5"/>
    <path id="Pfad_461" data-name="Pfad 461" d="M888.05,729.646l6.587,71.918a2.521,2.521,0,0,0,.9,2.081c.683.392,1.768-.528,1.21-1.085" fill="none" stroke="#000" stroke-linecap="round" stroke-linejoin="round" stroke-width="5"/>
    <path id="Pfad_462" data-name="Pfad 462" d="M887.683,708.073l-1.211,1.316" fill="none" stroke="#000" stroke-linecap="round" stroke-linejoin="round" stroke-width="5"/>
    <path id="Pfad_463" data-name="Pfad 463" d="M907.152,656.128q.834,66.184,8.239,132.069c1.06,9.422,3.217,20.326,11.689,24.583,4.4,2.21,9.7,2.031,14.381.532,11.6-3.71,19.614-14.813,22.925-26.533s2.688-24.144,2.039-36.306l-4.909-91.926" fill="none" stroke="#000" stroke-linecap="round" stroke-linejoin="round" stroke-width="5"/>
  </g>
</svg>
