<svg xmlns="http://www.w3.org/2000/svg" width="378.77" height="105.51" viewBox="0 0 378.77 105.51">
  <g id="Gruppe_239" data-name="Gruppe 239" transform="translate(-204.998 -603.383)">
    <path id="Pfad_418" data-name="Pfad 418" d="M210.147,705.362,207.5,605.883a378.521,378.521,0,0,0,8.315,39.818,2.377,2.377,0,0,0,1.038,1.687c.937.432,1.92-.461,2.568-1.264l30.392-37.674a650.872,650.872,0,0,0-2.95,96.079c.031.737.208,1.66.924,1.835s.852-1.394.2-1.06" fill="none" stroke="#000" stroke-linecap="round" stroke-linejoin="round" stroke-width="5"/>
    <path id="Pfad_419" data-name="Pfad 419" d="M290.113,614.877a95.8,95.8,0,0,0-15.989,1.1,6.989,6.989,0,0,0-3.494,1.232c-1.573,1.308-1.744,3.621-1.789,5.667q-.87,39.945.544,79.894a3.332,3.332,0,0,0,4.089,3.945l17.038.122a2.556,2.556,0,0,0,1.9-.5c.471-.481.237-1.544-.434-1.5" transform="translate(-9.272 -1.365)" fill="none" stroke="#000" stroke-linecap="round" stroke-linejoin="round" stroke-width="5"/>
    <path id="Pfad_420" data-name="Pfad 420" d="M272.456,662.468H295" transform="translate(-9.871 -8.599)" fill="none" stroke="#000" stroke-linecap="round" stroke-linejoin="round" stroke-width="5"/>
    <path id="Pfad_421" data-name="Pfad 421" d="M307.255,614.381l1.9,90.153" transform="translate(-15.16 -1.291)" fill="none" stroke="#000" stroke-linecap="round" stroke-linejoin="round" stroke-width="5"/>
    <path id="Pfad_422" data-name="Pfad 422" d="M313.091,618.136c4.429-2.485,10.188-1.687,14.465,1.052s7.251,7.133,9.374,11.746c6.99,15.185,5.7,32.716,4.27,49.371-.381,4.434-.827,9.064-3.231,12.809-4.969,7.739-15.767,8.541-24.964,8.519" transform="translate(-16.033 -1.635)" fill="none" stroke="#000" stroke-linecap="round" stroke-linejoin="round" stroke-width="5"/>
    <path id="Pfad_423" data-name="Pfad 423" d="M360.472,614.374l-1.739,87.833c-.012.6.092,1.374.675,1.532s.645-1.15.136-.824" transform="translate(-22.982 -1.29)" fill="none" stroke="#000" stroke-linecap="round" stroke-linejoin="round" stroke-width="5"/>
    <path id="Pfad_424" data-name="Pfad 424" d="M395.225,617.8c-3.63-.779-7.352-1.563-11.028-1.04s-7.356,2.631-8.7,6.092a15.825,15.825,0,0,0-.7,5.86l.367,62.169c.03,4.918.727,10.912,5.236,12.874,2.957,1.286,6.353.2,9.387-.9" transform="translate(-25.423 -1.627)" fill="none" stroke="#000" stroke-linecap="round" stroke-linejoin="round" stroke-width="5"/>
    <path id="Pfad_425" data-name="Pfad 425" d="M382.582,665h9.662" transform="translate(-26.607 -8.984)" fill="none" stroke="#000" stroke-linecap="round" stroke-linejoin="round" stroke-width="5"/>
    <path id="Pfad_426" data-name="Pfad 426" d="M408.375,705.209a847.18,847.18,0,0,1,5.03-92.119c2.5,31.944,21.253,60.07,30.764,90.666a835.033,835.033,0,0,0-5.253-92.038" transform="translate(-30.527 -0.887)" fill="none" stroke="#000" stroke-linecap="round" stroke-linejoin="round" stroke-width="5"/>
    <path id="Pfad_427" data-name="Pfad 427" d="M483.587,615.373a40.124,40.124,0,0,0-18.435-.284,5.461,5.461,0,0,0-3.161,1.539,5.853,5.853,0,0,0-.936,3.544c-.332,7.524-.65,15.177,1.225,22.471,4.422,17.2,20.348,29.962,23.545,47.432.434,2.373.488,5.164-1.279,6.805a6.926,6.926,0,0,1-4.713,1.426,22.961,22.961,0,0,1-15.341-5.712c-.991-.879-1.465-3.056-.141-3.02" transform="translate(-38.493 -1.257)" fill="none" stroke="#000" stroke-linecap="round" stroke-linejoin="round" stroke-width="5"/>
    <path id="Pfad_428" data-name="Pfad 428" d="M497.73,621.486a101.3,101.3,0,0,1,31.125.5" transform="translate(-44.105 -2.224)" fill="none" stroke="#000" stroke-linecap="round" stroke-linejoin="round" stroke-width="5"/>
    <path id="Pfad_429" data-name="Pfad 429" d="M512.653,621.958q-1.763,40.226-.915,80.511" transform="translate(-46.192 -2.443)" fill="none" stroke="#000" stroke-linecap="round" stroke-linejoin="round" stroke-width="5"/>
    <path id="Pfad_430" data-name="Pfad 430" d="M558.247,619.094A69.5,69.5,0,0,0,540,623.261a6.117,6.117,0,0,0-2.921,1.833,6.39,6.39,0,0,0-.857,3.678q-.909,34.035-.39,68.088a2.333,2.333,0,0,0,2.516,2.9l23.05,2.494-4.52-9.731" transform="translate(-49.867 -2.008)" fill="none" stroke="#000" stroke-linecap="round" stroke-linejoin="round" stroke-width="5"/>
    <path id="Pfad_431" data-name="Pfad 431" d="M539.557,668.556a45.316,45.316,0,0,0,15.07-.745" transform="translate(-50.462 -9.411)" fill="none" stroke="#000" stroke-linecap="round" stroke-linejoin="round" stroke-width="5"/>
    <path id="Pfad_432" data-name="Pfad 432" d="M573.945,616.934a567.27,567.27,0,0,0-.1,78.418c.173,2.54.573,5.45,2.714,6.828a7.493,7.493,0,0,0,4.552.784,36.3,36.3,0,0,0,11.965-2.833" transform="translate(-55.474 -1.679)" fill="none" stroke="#000" stroke-linecap="round" stroke-linejoin="round" stroke-width="5"/>
    <path id="Pfad_433" data-name="Pfad 433" d="M597.125,619.392a574.906,574.906,0,0,0-.885,78.33,6.06,6.06,0,0,0,1.165,3.909,5.341,5.341,0,0,0,2.944,1.337,22.457,22.457,0,0,0,12.425-1.091" transform="translate(-58.934 -2.053)" fill="none" stroke="#000" stroke-linecap="round" stroke-linejoin="round" stroke-width="5"/>
    <path id="Pfad_434" data-name="Pfad 434" d="M637.462,621.017a34.346,34.346,0,0,0-17.711-.475l2.108,66.758c.107,3.378.279,6.964,2.193,9.75,4.054,5.9,12.91,4.862,19.864,3.161a52.871,52.871,0,0,0-5.152-14.247" transform="translate(-62.649 -2.085)" fill="none" stroke="#000" stroke-linecap="round" stroke-linejoin="round" stroke-width="5"/>
    <path id="Pfad_435" data-name="Pfad 435" d="M623.089,663.734h15.028" transform="translate(-63.156 -8.791)" fill="none" stroke="#000" stroke-linecap="round" stroke-linejoin="round" stroke-width="5"/>
  </g>
</svg>
