<svg xmlns="http://www.w3.org/2000/svg" width="195.428" height="127.191" viewBox="0 0 195.428 127.191">
  <g id="Gruppe_231" data-name="Gruppe 231" transform="translate(-70.603 -351.79)">
    <path id="Pfad_351" data-name="Pfad 351" d="M80.1,460.171q-.076-35.3-2.764-70.536-.759-9.917-1.726-19.814l-4.659,1.262a303.832,303.832,0,0,1,18.759,48.725q2.082,7.2,3.809,14.493c.536,2.258,4.477,2.507,4.821,0,2.418-17.581,4.845-35.213,9.185-52.445q1.834-7.287,4.162-14.435l-4.911-.665q2.015,43.206,7.032,86.2,1.418,12.117,3.072,24.2c.182,1.339,1.9,2.07,3.075,1.746a2.568,2.568,0,0,0,1.746-3.075q-5.76-42.277-8.565-84.891-.8-12.086-1.36-24.183a2.512,2.512,0,0,0-4.911-.665c-5.529,16.89-8.676,34.419-11.25,51.968-.728,4.967-1.412,9.94-2.1,14.913h4.821A311.232,311.232,0,0,0,81.61,382.4q-3-7-6.337-13.838c-1.058-2.17-4.9-1.191-4.659,1.262q3.423,35.137,4.243,70.462.228,9.942.247,19.888c.008,3.217,5.008,3.223,5,0Z" fill="#161615"/>
    <path id="Pfad_352" data-name="Pfad 352" d="M141.9,372.165l-17.491,1.592a2.553,2.553,0,0,0-2.41,3.165,701.721,701.721,0,0,1,7.9,71.342q.6,10.09.9,20.194a2.544,2.544,0,0,0,2.5,2.5,173.675,173.675,0,0,0,28.87-2.136,2.529,2.529,0,0,0,1.746-3.076l-.629-2.45c-.8-3.115-5.623-1.795-4.821,1.329l.629,2.451L160.843,464a165.734,165.734,0,0,1-27.541,1.958l2.5,2.5a709.84,709.84,0,0,0-5.919-72.205q-1.384-10.352-3.06-20.66l-2.411,3.164,17.491-1.592a2.567,2.567,0,0,0,2.5-2.5,2.519,2.519,0,0,0-2.5-2.5Z" fill="#161615"/>
    <path id="Pfad_353" data-name="Pfad 353" d="M131.229,413.955c.881-.279,1.772-.521,2.675-.717q.73-.158,1.466-.278c.209-.034.422-.074.633-.1-.614.062.165-.015.287-.028a29.11,29.11,0,0,1,5.639-.041,2.509,2.509,0,0,0,2.5-2.5,2.565,2.565,0,0,0-2.5-2.5,31.017,31.017,0,0,0-12.029,1.338,2.5,2.5,0,1,0,1.329,4.821Z" fill="#161615"/>
    <path id="Pfad_354" data-name="Pfad 354" d="M170.245,464.556a322.123,322.123,0,0,0-4.674-70.689q-1.755-9.875-4.132-19.623l-4.569,1.926L177.789,406.2a2.566,2.566,0,0,0,3.421.9,2.522,2.522,0,0,0,.9-3.42q-10.459-15.018-20.92-30.034a2.512,2.512,0,0,0-4.569,1.926,316.041,316.041,0,0,1,8.906,69.174q.169,9.906-.279,19.809c-.143,3.217,4.857,3.21,5,0Z" fill="#161615"/>
    <path id="Pfad_355" data-name="Pfad 355" d="M175.082,368.632l8.566,75.9,2.407,21.333a2.576,2.576,0,0,0,2.5,2.5,2.516,2.516,0,0,0,2.5-2.5l-8.566-75.9-2.407-21.332a2.576,2.576,0,0,0-2.5-2.5,2.515,2.515,0,0,0-2.5,2.5Z" fill="#161615"/>
    <path id="Pfad_356" data-name="Pfad 356" d="M210.87,367.258a35.185,35.185,0,0,0-12.045-7.979c-2.441-.976-5.149-1.408-7.293.45a7.992,7.992,0,0,0-2.325,5.571,27.88,27.88,0,0,0,.73,7.252,59.663,59.663,0,0,0,2.019,7.549c1.665,5.018,3.766,9.88,5.662,14.812q5.823,15.148,10.349,30.752,2.259,7.794,4.188,15.678.963,3.941,1.844,7.9c.5,2.258,1.127,4.55,1.4,6.849.185,1.563.335,3.844-1,4.837-1.642,1.221-4.481.065-6.112-.592a21.951,21.951,0,0,1-10.49-9.053c-1.656-2.756-5.98-.245-4.318,2.523a27.208,27.208,0,0,0,9.752,9.6c3.8,2.174,9.17,4.305,13.372,2.033,4.25-2.3,4.209-7.6,3.45-11.726-.96-5.219-2.249-10.4-3.536-15.551q-3.963-15.859-9.269-31.343-2.67-7.789-5.673-15.458c-1.917-4.894-3.989-9.743-5.493-14.787a45.122,45.122,0,0,1-1.77-8.316,13.352,13.352,0,0,1-.074-3.263,5.318,5.318,0,0,1,.331-1.161c.026-.053.3-.391.22-.341.647-.391,2.076.343,2.874.677a29.194,29.194,0,0,1,3.508,1.785,29.974,29.974,0,0,1,6.163,4.841c2.261,2.3,5.8-1.24,3.535-3.536Z" fill="#161615"/>
    <path id="Pfad_357" data-name="Pfad 357" d="M231.76,459.585q2.216-40.945,3.059-81.95.238-11.678.366-23.358l-4.658,1.262c12.872,24.961,20.051,52.319,25.882,79.651,1.651,7.738,3.2,15.5,4.741,23.259a2.526,2.526,0,0,0,3.076,1.746,2.551,2.551,0,0,0,1.746-3.075c-5.5-27.675-11.061-55.55-21.242-81.961a224.28,224.28,0,0,0-9.886-22.143c-1.169-2.267-4.633-1.122-4.659,1.261q-.45,41-2.273,81.976-.519,11.669-1.152,23.332c-.174,3.215,4.826,3.205,5,0Z" fill="#161615"/>
    <path id="Pfad_358" data-name="Pfad 358" d="M234.737,416.841a58.836,58.836,0,0,1,6.8-1.347c-.407.055.4-.048.393-.047q.4-.048.795-.09.929-.1,1.859-.169c1.152-.086,2.307-.136,3.462-.157a2.5,2.5,0,0,0,0-5,63.518,63.518,0,0,0-14.634,1.989,2.5,2.5,0,1,0,1.329,4.821Z" fill="#161615"/>
  </g>
</svg>
