<svg xmlns="http://www.w3.org/2000/svg" width="545.325" height="134.226" viewBox="0 0 545.325 134.226">
  <g id="Gruppe_240" data-name="Gruppe 240" transform="matrix(0.999, -0.035, 0.035, 0.999, -792.573, -433.315)">
    <path id="Pfad_436" data-name="Pfad 436" d="M788.389,592.743l-2.755-99.816c-.041-1.474-.038-3.085.887-4.233a6.2,6.2,0,0,1,3.6-1.754,139,139,0,0,1,31.872-3.57c2.46.01,5.248.239,6.795,2.152,1.084,1.341,1.261,3.177,1.393,4.9l1.246,16.2c.292,3.787.555,7.751-.96,11.234-1.583,3.639-4.9,6.227-8.329,8.216-12.891,7.468-28.449,8.4-43.346,8.5" transform="translate(0 -0.316)" fill="none" stroke="#000" stroke-linecap="round" stroke-linejoin="round" stroke-width="5"/>
    <path id="Pfad_437" data-name="Pfad 437" d="M850.342,492.889q3.2,46.409,1.995,92.983" transform="translate(-11.81 -1.887)" fill="none" stroke="#000" stroke-linecap="round" stroke-linejoin="round" stroke-width="5"/>
    <path id="Pfad_438" data-name="Pfad 438" d="M846.049,493.9A19.487,19.487,0,0,1,875.4,508.211a12.189,12.189,0,0,1-.148,4.362c-1.509,6.238-8.728,8.759-14.18,12.146a5.074,5.074,0,0,0-1.9,1.739c-1.031,1.894.388,4.139,1.691,5.858a105.707,105.707,0,0,1,21.074,56.4" transform="translate(-11.102 -1.605)" fill="none" stroke="#000" stroke-linecap="round" stroke-linejoin="round" stroke-width="5"/>
    <path id="Pfad_439" data-name="Pfad 439" d="M915.617,487.361c-6.536-.722-12.605,4.342-15.205,10.382s-2.506,12.852-2.317,19.426c.514,17.887,1.449,36.007,6.9,53.05,1.085,3.392,2.6,7.025,5.764,8.655,4.039,2.079,8.995-.005,12.584-2.79,12.922-10.029,17.064-28.352,14.237-44.464s-11.453-30.543-20.256-44.329l2.693.307" transform="translate(-19.679 -0.963)" fill="none" stroke="#000" stroke-linecap="round" stroke-linejoin="round" stroke-width="5"/>
    <path id="Pfad_440" data-name="Pfad 440" d="M950.528,489.052a706.25,706.25,0,0,0,3.382,88.608,5.249,5.249,0,0,1-.362,1.557c-.113.525.121,1.232.658,1.243s.351-1.122-.069-.787" transform="translate(-28.311 -1.254)" fill="none" stroke="#000" stroke-linecap="round" stroke-linejoin="round" stroke-width="5"/>
    <path id="Pfad_441" data-name="Pfad 441" d="M945.939,490.522c9.49-.588,20.2-.752,27.028,5.865a28.537,28.537,0,0,1,5.03,7.149,84.78,84.78,0,0,1,7.25,60.932c-1.085,4.14-2.6,8.379-5.754,11.273-7.517,6.9-19.769,2.96-29.4,6.314l4.249-6.139" transform="translate(-27.59 -1.453)" fill="none" stroke="#000" stroke-linecap="round" stroke-linejoin="round" stroke-width="5"/>
    <path id="Pfad_442" data-name="Pfad 442" d="M994.847,486.111a602.922,602.922,0,0,0,9.692,80.071c.63,3.322,1.51,6.988,4.324,8.864,2.893,1.93,7,1.152,9.671-1.069s4.155-5.57,5.091-8.92c2.307-8.263,1.82-17.019,1.141-25.572q-2.218-27.919-6.9-55.568" transform="translate(-35.662 -0.406)" fill="none" stroke="#000" stroke-linecap="round" stroke-linejoin="round" stroke-width="5"/>
    <path id="Pfad_443" data-name="Pfad 443" d="M1039.039,481.48q2.331,49.547,3.923,99.124a3.6,3.6,0,0,0,2.7-4.054" transform="translate(-42.957 -0.004)" fill="none" stroke="#000" stroke-linecap="round" stroke-linejoin="round" stroke-width="5"/>
    <path id="Pfad_444" data-name="Pfad 444" d="M1058.469,487.711a101.008,101.008,0,0,0-17.45,21.085,9.732,9.732,0,0,0-1.7,4.075c-.2,2.116.914,4.105,1.966,5.952a222.875,222.875,0,0,1,23.4,59.819" transform="translate(-43 -1.032)" fill="none" stroke="#000" stroke-linecap="round" stroke-linejoin="round" stroke-width="5"/>
    <path id="Pfad_445" data-name="Pfad 445" d="M1068.658,487.785h26.422" transform="translate(-47.846 -1.045)" fill="none" stroke="#000" stroke-linecap="round" stroke-linejoin="round" stroke-width="5"/>
    <path id="Pfad_446" data-name="Pfad 446" d="M1084.567,490.386a721.923,721.923,0,0,1,5.769,86.606" transform="translate(-50.472 -1.474)" fill="none" stroke="#000" stroke-linecap="round" stroke-linejoin="round" stroke-width="5"/>
    <path id="Pfad_447" data-name="Pfad 447" d="M1111.873,491.576l2.755,85.367,3.432-5.028" transform="translate(-54.979 -1.67)" fill="none" stroke="#000" stroke-linecap="round" stroke-linejoin="round" stroke-width="5"/>
    <path id="Pfad_448" data-name="Pfad 448" d="M1144.014,488.863c-5.4-.25-10.246,3.874-12.5,8.789s-2.452,10.494-2.52,15.9q-.2,15.912.632,31.815c.477,9.087,1.467,18.826,7.357,25.763a5.8,5.8,0,0,0,2.692,2.017c1.966.549,3.941-.777,5.427-2.176,10.853-10.209,12.711-26.674,12.2-41.565a197.472,197.472,0,0,0-1.761-20.337,48.444,48.444,0,0,0-3.355-13.394,27.644,27.644,0,0,0-7.777-10.062" transform="translate(-57.798 -0.687)" fill="none" stroke="#000" stroke-linecap="round" stroke-linejoin="round" stroke-width="5"/>
    <path id="Pfad_449" data-name="Pfad 449" d="M1170.941,572.6l-4.12-83.071a74.245,74.245,0,0,1,16.743,24.483c.355.844.968,1.86,1.871,1.71s.051-1.968-.357-1.148" transform="translate(-64.049 -1.332)" fill="none" stroke="#000" stroke-linecap="round" stroke-linejoin="round" stroke-width="5"/>
    <path id="Pfad_450" data-name="Pfad 450" d="M1190.053,487.789l3.626,82.405a16.44,16.44,0,0,0,1.286,6.819" transform="translate(-67.883 -1.045)" fill="none" stroke="#000" stroke-linecap="round" stroke-linejoin="round" stroke-width="5"/>
    <path id="Pfad_451" data-name="Pfad 451" d="M1218.516,487.937c-4.272-1.631-9.828-2.979-12.819.48a8.7,8.7,0,0,0-1.622,3.245c-2.172,7.246.136,15.106,3.569,21.846s8,12.911,10.788,19.941c3.994,10.058,4.108,21.244,2.987,32.008-.228,2.186-.588,4.545-2.153,6.086-2.041,2.007-5.649,1.787-7.812-.089a8.775,8.775,0,0,1-2.557-7.827" transform="translate(-70.058 -0.792)" fill="none" stroke="#000" stroke-linecap="round" stroke-linejoin="round" stroke-width="5"/>
    <path id="Pfad_452" data-name="Pfad 452" d="M1241.921,572.179q-2.94-39.781-2.441-79.719c.02-1.565.1-3.283,1.155-4.441,1.585-1.739,4.382-1.285,6.659-.691,5.6,1.462,12.382,4.3,12.608,10.084a11.865,11.865,0,0,1-1.713,5.833,44.479,44.479,0,0,1-10.178,12.89c4.521,3.7,11.044,3.867,15.952,7.033,6.4,4.126,8.714,12.465,8.7,20.076-.016,7.415-1.88,15.034-6.48,20.849a25.966,25.966,0,0,1-21.673,9.63" transform="translate(-76.03 -0.881)" fill="none" stroke="#000" stroke-linecap="round" stroke-linejoin="round" stroke-width="5"/>
    <path id="Pfad_453" data-name="Pfad 453" d="M1287.091,490.288a496.377,496.377,0,0,0,1.314,76.05,8.213,8.213,0,0,0,1.3,4.423c1.515,1.919,4.306,2.1,6.751,2.123,3.857.032,7.843.032,11.39-1.487,5.187-2.221,8.615-7.431,10.064-12.883s1.2-11.2.881-16.828q-1.46-25.737-4.6-51.343" transform="translate(-83.756 -1.458)" fill="none" stroke="#000" stroke-linecap="round" stroke-linejoin="round" stroke-width="5"/>
    <path id="Pfad_454" data-name="Pfad 454" d="M1297.772,481.456h2.114" transform="translate(-85.664)" fill="none" stroke="#000" stroke-linecap="round" stroke-linejoin="round" stroke-width="5"/>
    <path id="Pfad_455" data-name="Pfad 455" d="M1311.7,481.456h4.227" transform="translate(-87.962)" fill="none" stroke="#000" stroke-linecap="round" stroke-linejoin="round" stroke-width="5"/>
    <path id="Pfad_456" data-name="Pfad 456" d="M1338.854,490.326l1.2,85.591" transform="translate(-92.445 -1.464)" fill="none" stroke="#000" stroke-linecap="round" stroke-linejoin="round" stroke-width="5"/>
    <path id="Pfad_457" data-name="Pfad 457" d="M1340.582,490.236a37.132,37.132,0,0,1,13.856-4.636,5.769,5.769,0,0,1,2.941.185c1.942.815,2.521,3.238,2.844,5.319.886,5.693,1.773,11.5.834,17.186s-4.032,11.327-9.214,13.847c-2.873,1.4-6.564,2.066-7.939,4.95a27.121,27.121,0,0,1,15.334,11.906,43.82,43.82,0,0,1,4.462,11.561,118.26,118.26,0,0,1,3.68,23.526" transform="translate(-92.73 -0.667)" fill="none" stroke="#000" stroke-linecap="round" stroke-linejoin="round" stroke-width="5"/>
    <path id="Pfad_458" data-name="Pfad 458" d="M1392.29,484.918c-6.367,1.047-11.235,6.619-13.34,12.719s-1.955,12.714-1.773,19.164c.45,16.017,1.345,33.189,11.053,45.936a7.617,7.617,0,0,0,3.79,3.063,6.722,6.722,0,0,0,4.171-.518c6.946-2.777,11.16-9.857,13.817-16.848a77.107,77.107,0,0,0,1.354-50.424c-1.506-4.711-3.6-9.456-7.4-12.63s-9.664-4.311-13.721-1.484" transform="translate(-98.754 -0.136)" fill="none" stroke="#000" stroke-linecap="round" stroke-linejoin="round" stroke-width="5"/>
  </g>
</svg>
