<svg xmlns="http://www.w3.org/2000/svg" width="258.974" height="114.247" viewBox="0 0 258.974 114.247">
  <g id="Gruppe_238" data-name="Gruppe 238" transform="matrix(0.998, -0.07, 0.07, 0.998, -860.438, -172.88)">
    <path id="Pfad_411" data-name="Pfad 411" d="M848.758,344.115c5.025-31.374.808-63.392.614-95.166-.013-2.045.061-4.285,1.4-5.829a7.438,7.438,0,0,1,4.16-2.055c7.233-1.58,14.737.03,21.963,1.636,5.186,1.152,11.217,3.037,12.849,8.092,1.338,4.146-1.021,8.562-3.786,11.928a44.86,44.86,0,0,1-27.56,15.7q11.828,7.534,22.907,16.162c4.3,3.349,8.585,6.9,11.459,11.533,6.216,10.011,4.68,22.8,2.931,34.454" fill="none" stroke="#000" stroke-linecap="round" stroke-linejoin="round" stroke-width="5"/>
    <path id="Pfad_412" data-name="Pfad 412" d="M944.263,266.322c-12.4,1.667-22.162,12.454-25.75,24.439s-2.009,24.917.956,37.071c1.559,6.39,3.911,13.257,9.532,16.674,4.219,2.565,9.442,2.643,14.379,2.57,5.189-.077,10.549-.278,15.239-2.5,5.868-2.781,9.967-8.482,12.082-14.62s2.465-12.737,2.487-19.23c.038-11.126-.951-22.68-6.438-32.359s-16.52-16.96-27.47-14.989" transform="translate(-23.139 -7.738)" fill="none" stroke="#000" stroke-linecap="round" stroke-linejoin="round" stroke-width="5"/>
    <path id="Pfad_413" data-name="Pfad 413" d="M1032.3,261.6c-4.256.535-8.564-.393-12.85-.209s-9,1.916-10.7,5.854c-1.514,3.509-.093,7.707,2.4,10.605s5.892,4.824,9.092,6.913a85.707,85.707,0,0,1,31.281,36.772c3.323,7.493,5.174,17.238-.546,23.108-4.966,5.1-13.327,4.67-20.072,2.4a99.367,99.367,0,0,1-14.887-6.907c-4.935-2.629-10.677-6.878-9.461-12.336" transform="translate(-53.888 -7.16)" fill="none" stroke="#000" stroke-linecap="round" stroke-linejoin="round" stroke-width="5"/>
    <path id="Pfad_414" data-name="Pfad 414" d="M1093.848,259.937q-.573,42.9.147,85.807" transform="translate(-83.697 -6.672)" fill="none" stroke="#000" stroke-linecap="round" stroke-linejoin="round" stroke-width="5"/>
    <path id="Pfad_415" data-name="Pfad 415" d="M1138.237,263.3,1114,261.459a2.643,2.643,0,0,0-2.035.406,2.565,2.565,0,0,0-.523,2.055c.371,7.7,2.866,15.124,4.412,22.68,3.632,17.756,2,36.133,3.516,54.194a2.554,2.554,0,0,0,.554,1.661,2.582,2.582,0,0,0,1.856.49l20.486.014a2.85,2.85,0,0,0,2.2-.629c.524-.586.111-1.83-.654-1.651" transform="translate(-89.795 -7.183)" fill="none" stroke="#000" stroke-linecap="round" stroke-linejoin="round" stroke-width="5"/>
    <path id="Pfad_416" data-name="Pfad 416" d="M1124.336,312.117l14.157.923" transform="translate(-94.207 -24.51)" fill="none" stroke="#000" stroke-linecap="round" stroke-linejoin="round" stroke-width="5"/>
    <path id="Pfad_417" data-name="Pfad 417" d="M1197.961,262.948c-7.289-2.11-14.839-5.749-22.108-3.571-9.608,2.879-13.664,15.19-10.9,24.831s10.344,17.045,17.833,23.717,15.447,13.428,19.453,22.623a11.807,11.807,0,0,1,1.225,6.441c-.663,4.2-4.9,6.956-9.044,7.914a22.18,22.18,0,0,1-22.912-9.17" transform="translate(-107.802 -6.251)" fill="none" stroke="#000" stroke-linecap="round" stroke-linejoin="round" stroke-width="5"/>
  </g>
</svg>
