<svg xmlns="http://www.w3.org/2000/svg" width="692.124" height="132.628" viewBox="0 0 692.124 132.628">
  <g id="Gruppe_243" data-name="Gruppe 243" transform="translate(-15.447 -1084.483)">
    <path id="Pfad_494" data-name="Pfad 494" d="M548.624,1114.176a961.492,961.492,0,0,0,12.58,95.811,95.283,95.283,0,0,1,6.218-35.87,172.975,172.975,0,0,0,12.625,32.909,544.964,544.964,0,0,0-3.47-101.449" transform="translate(-153.816 -5.385)" fill="none" stroke="#000" stroke-linecap="round" stroke-linejoin="round" stroke-width="5"/>
    <path id="Pfad_495" data-name="Pfad 495" d="M627.013,1100.785l-15.595,2.385c-1.817.278-3.866.7-4.819,2.276a6.348,6.348,0,0,0-.645,3.125q-1.41,42.436-2.821,84.873c-.062,1.877-.075,3.92,1.067,5.412,1.384,1.809,3.932,2.147,6.2,2.316q14.554,1.081,29.166.807" transform="translate(-169.612 -3.996)" fill="none" stroke="#000" stroke-linecap="round" stroke-linejoin="round" stroke-width="5"/>
    <path id="Pfad_496" data-name="Pfad 496" d="M606.689,1165.429l15.762.859" transform="translate(-170.65 -22.738)" fill="none" stroke="#000" stroke-linecap="round" stroke-linejoin="round" stroke-width="5"/>
    <path id="Pfad_497" data-name="Pfad 497" d="M664.96,1206.393l-8.511-92.016c-.169-1.822-.307-3.785.631-5.356,1.156-1.937,3.575-2.67,5.8-3.033a36.26,36.26,0,0,1,19.289,2.151c1.679.677,3.5,1.715,3.864,3.488.345,1.669-.749,3.266-1.819,4.593a93.652,93.652,0,0,1-24.027,21.088c11.655,5.934,19.781,17.378,24.226,29.679s5.6,25.52,6.308,38.579" transform="translate(-185.04 -5.37)" fill="none" stroke="#000" stroke-linecap="round" stroke-linejoin="round" stroke-width="5"/>
    <path id="Pfad_498" data-name="Pfad 498" d="M713.347,1104.467a676.858,676.858,0,0,1,4.089,99.52c-.031.94.136,2.157,1.053,2.366s.744-1.858.077-1.2" transform="translate(-201.571 -5.064)" fill="none" stroke="#000" stroke-linecap="round" stroke-linejoin="round" stroke-width="5"/>
    <path id="Pfad_499" data-name="Pfad 499" d="M735.266,1101.993l-10.277,25.4a5.756,5.756,0,0,0-.582,2.342,6.016,6.016,0,0,0,1.478,3.127c14.565,19.99,18.434,45.6,21.484,70.15" transform="translate(-204.777 -4.347)" fill="none" stroke="#000" stroke-linecap="round" stroke-linejoin="round" stroke-width="5"/>
    <path id="Pfad_500" data-name="Pfad 500" d="M772.893,1109.909c-1.643-4.645-8.853-4.924-12.274-1.378s-3.788,9.042-3.138,13.926c.861,6.467,3.127,12.649,5.14,18.856a252.9,252.9,0,0,1,10.935,51.521c.437,4.157-.046,9.6-4.065,10.744-2.458.7-5.125-.834-6.491-2.995s-1.7-4.8-1.884-7.35" transform="translate(-214.289 -5.542)" fill="none" stroke="#000" stroke-linecap="round" stroke-linejoin="round" stroke-width="5"/>
    <path id="Pfad_501" data-name="Pfad 501" d="M789.982,1104.23a208.664,208.664,0,0,0,21.278.888" transform="translate(-223.788 -4.995)" fill="none" stroke="#000" stroke-linecap="round" stroke-linejoin="round" stroke-width="5"/>
    <path id="Pfad_502" data-name="Pfad 502" d="M803.563,1106.547q-.8,50.085-4.39,100.073" transform="translate(-226.453 -5.667)" fill="none" stroke="#000" stroke-linecap="round" stroke-linejoin="round" stroke-width="5"/>
    <path id="Pfad_503" data-name="Pfad 503" d="M836.145,1101.838a855.342,855.342,0,0,0-20.434,96.505" transform="translate(-231.248 -4.302)" fill="none" stroke="#000" stroke-linecap="round" stroke-linejoin="round" stroke-width="5"/>
    <path id="Pfad_504" data-name="Pfad 504" d="M843.775,1103.257l6.5,101.626" transform="translate(-239.384 -4.713)" fill="none" stroke="#000" stroke-linecap="round" stroke-linejoin="round" stroke-width="5"/>
    <path id="Pfad_505" data-name="Pfad 505" d="M824.45,1178.49a72.78,72.78,0,0,1,21.785-.422c.452.059,1.037.05,1.207-.372s-.808-.574-.6-.168" transform="translate(-233.781 -26.176)" fill="none" stroke="#000" stroke-linecap="round" stroke-linejoin="round" stroke-width="5"/>
    <path id="Pfad_506" data-name="Pfad 506" d="M834.325,1092.223l1.575.792" transform="translate(-236.644 -1.514)" fill="none" stroke="#000" stroke-linecap="round" stroke-linejoin="round" stroke-width="5"/>
    <path id="Pfad_507" data-name="Pfad 507" d="M854.972,1089.83c-.493-.781-1.744.746-.88,1.075,1.406-.3,2.782-1.631,2.387-3.014s-3.112-1.062-2.742.328" transform="translate(-242.262)" fill="none" stroke="#000" stroke-linecap="round" stroke-linejoin="round" stroke-width="5"/>
    <path id="Pfad_508" data-name="Pfad 508" d="M857.657,1106.646a270.334,270.334,0,0,1,31.555-1.771" transform="translate(-243.408 -5.182)" fill="none" stroke="#000" stroke-linecap="round" stroke-linejoin="round" stroke-width="5"/>
    <path id="Pfad_509" data-name="Pfad 509" d="M882.923,1107.59c-2.083,18.88-2.044,37.922-2,56.916L881,1202.1c0,.436.072.977.483,1.123s.66-.73.232-.645" transform="translate(-250.15 -5.969)" fill="none" stroke="#000" stroke-linecap="round" stroke-linejoin="round" stroke-width="5"/>
    <path id="Pfad_510" data-name="Pfad 510" d="M897.626,1115.956a138.979,138.979,0,0,1,22.089-.521" transform="translate(-254.996 -8.18)" fill="none" stroke="#000" stroke-linecap="round" stroke-linejoin="round" stroke-width="5"/>
    <path id="Pfad_511" data-name="Pfad 511" d="M913.1,1117.544c-1.128,10.7-.962,21.5-.795,32.258q.411,26.5.822,53l1.353-1.63" transform="translate(-259.217 -8.855)" fill="none" stroke="#000" stroke-linecap="round" stroke-linejoin="round" stroke-width="5"/>
    <path id="Pfad_512" data-name="Pfad 512" d="M951.053,1099.691a59.01,59.01,0,0,0-15.522-.577c-1.7.162-3.616.54-4.5,2a5.8,5.8,0,0,0-.56,2.973q-.374,42.922-.748,85.844a5.575,5.575,0,0,0,.7,3.388c.876,1.2,2.515,1.49,3.987,1.684,2.491.33,5.083.651,7.468-.138s4.487-3.041,4.231-5.541" transform="translate(-264.302 -3.435)" fill="none" stroke="#000" stroke-linecap="round" stroke-linejoin="round" stroke-width="5"/>
    <path id="Pfad_513" data-name="Pfad 513" d="M933.153,1157.892l7.887.749" transform="translate(-265.296 -20.553)" fill="none" stroke="#000" stroke-linecap="round" stroke-linejoin="round" stroke-width="5"/>
    <path id="Pfad_514" data-name="Pfad 514" d="M961.084,1200.779q4.361-42.188,5.044-84.65A34.264,34.264,0,0,0,976,1141.6" transform="translate(-273.393 -8.445)" fill="none" stroke="#000" stroke-linecap="round" stroke-linejoin="round" stroke-width="5"/>
    <path id="Pfad_515" data-name="Pfad 515" d="M984.246,1105.44l-.022,99.154c0,.436.068.976.477,1.125s.675-.717.246-.646" transform="translate(-280.102 -5.346)" fill="none" stroke="#000" stroke-linecap="round" stroke-linejoin="round" stroke-width="5"/>
    <path id="Pfad_516" data-name="Pfad 516" d="M18.064,1111.848c1,20.812,10.669,40.168,14.713,60.607,2.763,13.965,2.89,28.407,6.477,42.183,6.014-13.711,7.621-28.886,9.072-43.788q2.825-29.015,5.223-58.071" transform="translate(0 -7.204)" fill="none" stroke="#000" stroke-linecap="round" stroke-linejoin="round" stroke-width="5"/>
    <path id="Pfad_517" data-name="Pfad 517" d="M95.54,1115.438a79.2,79.2,0,0,0-15.8,2.148,5.543,5.543,0,0,0-2.82,1.305,5.752,5.752,0,0,0-1.143,3.614q-3.665,46-4.273,92.169c-.016,1.244.043,2.662.991,3.469a4.316,4.316,0,0,0,2.766.7l11.381.235c1.83.038,4.469-1.355,3.327-2.786" transform="translate(-15.494 -8.245)" fill="none" stroke="#000" stroke-linecap="round" stroke-linejoin="round" stroke-width="5"/>
    <path id="Pfad_518" data-name="Pfad 518" d="M69.942,1178.579a24.684,24.684,0,0,0,9.945-.547" transform="translate(-15.04 -26.391)" fill="none" stroke="#000" stroke-linecap="round" stroke-linejoin="round" stroke-width="5"/>
    <path id="Pfad_519" data-name="Pfad 519" d="M115.458,1121.963l1.368,97.98" transform="translate(-28.236 -10.136)" fill="none" stroke="#000" stroke-linecap="round" stroke-linejoin="round" stroke-width="5"/>
    <path id="Pfad_520" data-name="Pfad 520" d="M117.884,1118.746c-.467-1.608.736-3.32,2.262-4.01a10.615,10.615,0,0,1,4.944-.532c3.091.159,6.3.349,9.023,1.813s4.82,4.6,4.062,7.6c-.555,2.2-2.425,3.771-4.2,5.174q-7.98,6.3-16.27,12.192c13.022,8.8,18.564,24.987,22.676,40.159,2.766,10.206,5.275,20.571,5.693,31.137" transform="translate(-28.886 -7.871)" fill="none" stroke="#000" stroke-linecap="round" stroke-linejoin="round" stroke-width="5"/>
    <path id="Pfad_521" data-name="Pfad 521" d="M181.947,1113.053l-5.4,107.757.689-3.457" transform="translate(-45.946 -7.553)" fill="none" stroke="#000" stroke-linecap="round" stroke-linejoin="round" stroke-width="5"/>
    <path id="Pfad_522" data-name="Pfad 522" d="M181.159,1115.6c.729,36.247,15.312,70.968,17.688,107.145" transform="translate(-47.283 -8.291)" fill="none" stroke="#000" stroke-linecap="round" stroke-linejoin="round" stroke-width="5"/>
    <path id="Pfad_523" data-name="Pfad 523" d="M183.8,1202.524a7.256,7.256,0,0,1,7.195.105" transform="translate(-48.049 -33.23)" fill="none" stroke="#000" stroke-linecap="round" stroke-linejoin="round" stroke-width="5"/>
    <path id="Pfad_524" data-name="Pfad 524" d="M209.6,1116.911q.776,51.724,3.861,103.378" transform="translate(-55.528 -8.672)" fill="none" stroke="#000" stroke-linecap="round" stroke-linejoin="round" stroke-width="5"/>
    <path id="Pfad_525" data-name="Pfad 525" d="M211.538,1118.632c5.261-3.238,12.159-6.466,17.188-2.878,5.124,3.656,4.137,11.592,1.475,17.3a48.889,48.889,0,0,1-16.269,19.334c3.187,2.908,7.713,4.062,10.754,7.121,4.124,4.148,4.5,10.615,4.62,16.463l.895,42.622" transform="translate(-56.09 -7.88)" fill="none" stroke="#000" stroke-linecap="round" stroke-linejoin="round" stroke-width="5"/>
    <path id="Pfad_526" data-name="Pfad 526" d="M255.375,1115.631l-.328,105.164" transform="translate(-68.704 -8.3)" fill="none" stroke="#000" stroke-linecap="round" stroke-linejoin="round" stroke-width="5"/>
    <path id="Pfad_527" data-name="Pfad 527" d="M256.24,1116.751a36.073,36.073,0,0,1,14.346-3.565,9.548,9.548,0,0,1,4.138.543c2.078.895,3.4,2.981,4.189,5.1,3.837,10.337-4.357,23.214-15.345,24.117,4.76,2.883,12.387,0,15.56,4.569a10.141,10.141,0,0,1,1.37,4.709,173.8,173.8,0,0,1,1.02,26.41,29.933,29.933,0,0,1-1.442,9.359c-4.761,12.8-23.885,16.787-26.369,30.214" transform="translate(-68.315 -7.587)" fill="none" stroke="#000" stroke-linecap="round" stroke-linejoin="round" stroke-width="5"/>
    <path id="Pfad_528" data-name="Pfad 528" d="M318.427,1115.717a24.67,24.67,0,0,0-14.388,1.52l1.314,95.341a2.287,2.287,0,0,0,2.843,2.727l14.335.065c1.763.009,4.258-1.593,2.943-2.768" transform="translate(-82.908 -8.193)" fill="none" stroke="#000" stroke-linecap="round" stroke-linejoin="round" stroke-width="5"/>
    <path id="Pfad_529" data-name="Pfad 529" d="M307.829,1174.213a44.811,44.811,0,0,1,12.633-1.61" transform="translate(-84.006 -24.816)" fill="none" stroke="#000" stroke-linecap="round" stroke-linejoin="round" stroke-width="5"/>
    <path id="Pfad_530" data-name="Pfad 530" d="M337.754,1110.615a888.272,888.272,0,0,1,2.964,102.433" transform="translate(-92.682 -6.846)" fill="none" stroke="#000" stroke-linecap="round" stroke-linejoin="round" stroke-width="5"/>
    <path id="Pfad_531" data-name="Pfad 531" d="M350.95,1116.565a129.881,129.881,0,0,1,21.563-.966" transform="translate(-96.508 -8.263)" fill="none" stroke="#000" stroke-linecap="round" stroke-linejoin="round" stroke-width="5"/>
    <path id="Pfad_532" data-name="Pfad 532" d="M370.743,1116.906l1.522,96.167" transform="translate(-102.246 -8.67)" fill="none" stroke="#000" stroke-linecap="round" stroke-linejoin="round" stroke-width="5"/>
    <path id="Pfad_533" data-name="Pfad 533" d="M393.817,1110.437c-3.553,26.3-1.614,53.139,3.442,79.193.589,3.036,1.252,6.142,2.929,8.74s4.606,4.615,7.685,4.332c4.479-.41,7.17-5.152,8.419-9.473,2.389-8.265,2.382-17.007,2.355-25.611l-.162-53.484" transform="translate(-108.409 -6.795)" fill="none" stroke="#000" stroke-linecap="round" stroke-linejoin="round" stroke-width="5"/>
    <path id="Pfad_534" data-name="Pfad 534" d="M439.013,1113.136q3.124,47.107,2.69,94.359" transform="translate(-122.038 -7.577)" fill="none" stroke="#000" stroke-linecap="round" stroke-linejoin="round" stroke-width="5"/>
    <path id="Pfad_535" data-name="Pfad 535" d="M440.171,1119.79a124.142,124.142,0,0,1,14.606,42.923" transform="translate(-122.374 -9.506)" fill="none" stroke="#000" stroke-linecap="round" stroke-linejoin="round" stroke-width="5"/>
    <path id="Pfad_536" data-name="Pfad 536" d="M461.645,1118.167l.285,90.783" transform="translate(-128.6 -9.036)" fill="none" stroke="#000" stroke-linecap="round" stroke-linejoin="round" stroke-width="5"/>
    <path id="Pfad_537" data-name="Pfad 537" d="M493.475,1116.072c-4.867-1.7-9.8,2.6-12.286,7.114-4.382,7.964-5.193,17.375-5.281,26.464a197.078,197.078,0,0,0,4.873,45.475c.689,3.035,1.51,6.173,3.534,8.537s5.609,3.684,8.344,2.2c1.745-.949,2.791-2.794,3.608-4.6,5.433-12.035,4.532-25.851,3.526-39.017a2.266,2.266,0,0,0-2.8-2.608l-7.353.084" transform="translate(-132.732 -8.318)" fill="none" stroke="#000" stroke-linecap="round" stroke-linejoin="round" stroke-width="5"/>
    <path id="Pfad_538" data-name="Pfad 538" d="M530.724,1119.971c-3.446-1.916-7.523-3.881-11.158-2.353-3.007,1.264-4.667,4.666-4.809,7.924s.951,6.431,2.066,9.5c7.641,21.006,17.186,42.793,13.524,64.843-.518,3.118-1.592,6.576-4.432,7.965s-7.163-1.583-5.674-4.371" transform="translate(-143.994 -8.718)" fill="none" stroke="#000" stroke-linecap="round" stroke-linejoin="round" stroke-width="5"/>
  </g>
</svg>
