<svg xmlns="http://www.w3.org/2000/svg" width="328.71" height="146.932" viewBox="0 0 328.71 146.932">
  <g id="Gruppe_204" data-name="Gruppe 204" transform="translate(-142.272 -108.729)">
    <path id="Pfad_338" data-name="Pfad 338" d="M145.809,167.454q37.541-7.617,75.486-13.014" transform="translate(0 -16.621)" fill="none" stroke="#000" stroke-linecap="round" stroke-linejoin="round" stroke-width="6"/>
    <path id="Pfad_339" data-name="Pfad 339" d="M211.4,166.326q10.929,53.349,18.557,107.3" transform="translate(-26.139 -21.358)" fill="none" stroke="#000" stroke-linecap="round" stroke-linejoin="round" stroke-width="6"/>
    <path id="Pfad_340" data-name="Pfad 340" d="M254.48,207.1c2.868,18.546,5.739,37.106,9.715,55.447.74,3.415,1.549,6.9,3.415,9.851s5.013,5.33,8.507,5.338c3.229.007,6.182-1.993,8.206-4.508,6.035-7.5,4.84-18.327,2.964-27.771a369.74,369.74,0,0,0-10.547-40.766" transform="translate(-43.307 -36.647)" fill="none" stroke="#000" stroke-linecap="round" stroke-linejoin="round" stroke-width="6"/>
    <path id="Pfad_341" data-name="Pfad 341" d="M291.708,170.329l35.3-5.351" transform="translate(-58.143 -20.821)" fill="none" stroke="#000" stroke-linecap="round" stroke-linejoin="round" stroke-width="6"/>
    <path id="Pfad_342" data-name="Pfad 342" d="M325.074,170.715q10.183,43.307,17.518,87.219" transform="translate(-71.44 -23.107)" fill="none" stroke="#000" stroke-linecap="round" stroke-linejoin="round" stroke-width="6"/>
    <path id="Pfad_343" data-name="Pfad 343" d="M372,166.848c-5.92-.608-11.566,3.525-14.327,8.8s-3.151,11.455-2.95,17.4a100.442,100.442,0,0,0,14.24,48.145c3.527,5.863,7.818,11.509,13.7,15s13.655,4.437,19.533.933c8.6-5.124,9.937-16.926,9.319-26.915A151.17,151.17,0,0,0,402,186.02c-2.87-7.57-6.6-15.225-13.114-20.036s-16.477-5.79-22.356-.224" transform="translate(-83.236 -19.621)" fill="none" stroke="#000" stroke-linecap="round" stroke-linejoin="round" stroke-width="6"/>
    <path id="Pfad_344" data-name="Pfad 344" d="M428.256,125.57a850.021,850.021,0,0,1,28.811,103.011l-2.147-11.428" transform="translate(-112.559 -5.116)" fill="none" stroke="#000" stroke-linecap="round" stroke-linejoin="round" stroke-width="6"/>
    <path id="Pfad_345" data-name="Pfad 345" d="M428.824,123.5A79.862,79.862,0,0,1,460.51,120.6a6.453,6.453,0,0,1,3.872,1.354c2.443,2.345.207,6.388-2.108,8.858a160.472,160.472,0,0,1-27.446,23.366c7.165-1.062,14.42-2.126,21.625-1.388s14.474,3.484,19.255,8.925c4.491,5.111,6.328,11.962,8.029,18.55q6.664,25.808,13.327,51.617" transform="translate(-112.785 -2.946)" fill="none" stroke="#000" stroke-linecap="round" stroke-linejoin="round" stroke-width="6"/>
    <path id="Pfad_346" data-name="Pfad 346" d="M542.017,143.911a121.146,121.146,0,0,0-37.314,8.633,6.511,6.511,0,0,0-3.065,2.024c-1.038,1.5-.686,3.515-.291,5.294l14.872,67.048c.281,1.268.658,2.674,1.771,3.344a4.859,4.859,0,0,0,2.924.369l48.533-3.984-3.329-4.016" transform="translate(-141.531 -12.425)" fill="none" stroke="#000" stroke-linecap="round" stroke-linejoin="round" stroke-width="6"/>
    <path id="Pfad_347" data-name="Pfad 347" d="M520.961,223.237a255.588,255.588,0,0,1,29.621-3.978" transform="translate(-149.503 -42.452)" fill="none" stroke="#000" stroke-linecap="round" stroke-linejoin="round" stroke-width="6"/>
    <path id="Pfad_348" data-name="Pfad 348" d="M614.591,211.974a554.382,554.382,0,0,0-20.824-66.567,193.961,193.961,0,0,0,52.732,56.73c-7.906-31.176-21.912-60.41-35.83-89.4" transform="translate(-178.517)" fill="none" stroke="#000" stroke-linecap="round" stroke-linejoin="round" stroke-width="6"/>
  </g>
</svg>
